<svg width="107" height="107" viewBox="0 0 107 107" fill="none" xmlns="http://www.w3.org/2000/svg">
<g clip-path="url(#clip0_664_172)">
<path d="M49.0417 107H22.2917C10 107 0 97 0 84.7083V57.9583C0 45.6667 10 35.6667 22.2917 35.6667H49.0417C61.3333 35.6667 71.3333 45.6667 71.3333 57.9583V84.7083C71.3333 97 61.3333 107 49.0417 107ZM22.2917 44.5833C14.9176 44.5833 8.91667 50.5843 8.91667 57.9583V84.7083C8.91667 92.0824 14.9176 98.0833 22.2917 98.0833H49.0417C56.4158 98.0833 62.4167 92.0824 62.4167 84.7083V57.9583C62.4167 50.5843 56.4158 44.5833 49.0417 44.5833H22.2917ZM107 49.0417C107 22.0019 84.9981 0 57.9583 0C55.4929 0 53.5 1.99733 53.5 4.45833C53.5 6.91933 55.4929 8.91667 57.9583 8.91667C80.085 8.91667 98.0833 26.9194 98.0833 49.0417C98.0833 51.5027 100.076 53.5 102.542 53.5C105.007 53.5 107 51.5027 107 49.0417ZM89.1667 49.0417C89.1667 31.8325 75.163 17.8333 57.9583 17.8333C55.4929 17.8333 53.5 19.8307 53.5 22.2917C53.5 24.7527 55.4929 26.75 57.9583 26.75C70.25 26.75 80.25 36.75 80.25 49.0417C80.25 51.5027 82.2429 53.5 84.7083 53.5C87.1738 53.5 89.1667 51.5027 89.1667 49.0417ZM22.2917 53.5C19.8307 53.5 17.8333 55.4973 17.8333 57.9583C17.8333 60.4193 19.8307 62.4167 22.2917 62.4167C24.7527 62.4167 26.75 60.4193 26.75 57.9583C26.75 55.4973 24.7527 53.5 22.2917 53.5Z" fill="#F0F0F0"/>
</g>
<defs>
<clipPath id="clip0_664_172">
<rect width="107" height="107" fill="white"/>
</clipPath>
</defs>
</svg>
