<svg width="103" height="103" viewBox="0 0 103 103" fill="none" xmlns="http://www.w3.org/2000/svg">
<g clip-path="url(#clip0_687_186)">
<path d="M63.727 54.7059L40.346 36.4019C36.8096 33.6338 31.8613 33.6295 28.325 36.4019L4.93971 54.7016C1.8025 57.1607 0 60.8601 0 64.8428V103H68.6667V64.8428C68.6667 60.8558 66.8642 57.1607 63.727 54.7059ZM60.0833 94.4167H8.58333V64.8428C8.58333 63.5124 9.18417 62.2807 10.2313 61.461L33.6123 43.1656C34.0329 42.8308 34.6252 42.8351 35.0543 43.1656L58.4353 61.4695C59.4825 62.285 60.0833 63.521 60.0833 64.8471V94.4167ZM25.75 64.375H42.9167V81.5417H25.75V64.375ZM77.25 55.7917H85.8333V64.375H77.25V55.7917ZM77.25 72.9583H85.8333V81.5417H77.25V72.9583ZM60.0833 21.4583H68.6667V30.0417H60.0833V21.4583ZM85.8333 30.0417H77.25V21.4583H85.8333V30.0417ZM60.0833 38.625H68.6667V47.2083H60.0833V38.625ZM77.25 38.625H85.8333V47.2083H77.25V38.625ZM103 12.875V103H77.25V94.4167H94.4167V12.875C94.4167 10.506 92.494 8.58333 90.125 8.58333H55.7917C53.4227 8.58333 51.5 10.506 51.5 12.875V34.2389L42.9167 27.5225V12.875C42.9167 12.802 42.9167 12.7248 42.921 12.6518C43.0411 5.65642 48.7662 0 55.7917 0H90.125C97.2234 0 103 5.77658 103 12.875Z" fill="white"/>
</g>
<defs>
<clipPath id="clip0_687_186">
<rect width="103" height="103" fill="white"/>
</clipPath>
</defs>
</svg>
