<svg width="84" height="84" viewBox="0 0 84 84" fill="none" xmlns="http://www.w3.org/2000/svg">
<g clip-path="url(#clip0_677_163)">
<path d="M66.5 0H17.5C12.8604 0.0055575 8.41245 1.85109 5.13177 5.13177C1.85109 8.41245 0.0055575 12.8604 0 17.5L0 66.5C0.0055575 71.1396 1.85109 75.5875 5.13177 78.8682C8.41245 82.1489 12.8604 83.9944 17.5 84H66.5C71.1396 83.9944 75.5875 82.1489 78.8682 78.8682C82.1489 75.5875 83.9944 71.1396 84 66.5V17.5C83.9944 12.8604 82.1489 8.41245 78.8682 5.13177C75.5875 1.85109 71.1396 0.0055575 66.5 0ZM70 38.5H77V45.5H70V38.5ZM70 31.5V24.5H77V31.5H70ZM63 38.5H21V7H63V38.5ZM14 45.5H7V38.5H14V45.5ZM14 31.5H7V24.5H14V31.5ZM7 52.5H14V59.5H7V52.5ZM21 45.5H63V77H21V45.5ZM70 52.5H77V59.5H70V52.5ZM77 17.5H70V7.644C72.0402 8.36529 73.8077 9.69931 75.0607 11.4636C76.3137 13.2278 76.991 15.3361 77 17.5ZM14 7.644V17.5H7C7.00897 15.3361 7.68629 13.2278 8.93931 11.4636C10.1923 9.69931 11.9598 8.36529 14 7.644ZM7 66.5H14V76.356C11.9598 75.6347 10.1923 74.3007 8.93931 72.5364C7.68629 70.7722 7.00897 68.6639 7 66.5ZM70 76.356V66.5H77C76.991 68.6639 76.3137 70.7722 75.0607 72.5364C73.8077 74.3007 72.0402 75.6347 70 76.356Z" fill="white"/>
</g>
<defs>
<clipPath id="clip0_677_163">
<rect width="84" height="84" fill="white"/>
</clipPath>
</defs>
</svg>
