<svg width="90" height="90" viewBox="0 0 90 90" fill="none" xmlns="http://www.w3.org/2000/svg">
<g clip-path="url(#clip0_677_169)">
<path d="M71.25 31.59V26.25C71.25 19.2881 68.4844 12.6113 63.5616 7.68845C58.6387 2.76562 51.9619 0 45 0C38.0381 0 31.3613 2.76562 26.4384 7.68845C21.5156 12.6113 18.75 19.2881 18.75 26.25V31.59C15.4101 33.0476 12.5673 35.447 10.5694 38.4945C8.5714 41.5421 7.50479 45.1059 7.5 48.75V71.25C7.50595 76.221 9.48331 80.9867 12.9983 84.5017C16.5133 88.0167 21.279 89.994 26.25 90H63.75C68.721 89.994 73.4867 88.0167 77.0017 84.5017C80.5167 80.9867 82.4941 76.221 82.5 71.25V48.75C82.4952 45.1059 81.4286 41.5421 79.4306 38.4945C77.4327 35.447 74.5899 33.0476 71.25 31.59ZM26.25 26.25C26.25 21.2772 28.2254 16.5081 31.7418 12.9917C35.2581 9.47544 40.0272 7.5 45 7.5C49.9728 7.5 54.742 9.47544 58.2583 12.9917C61.7746 16.5081 63.75 21.2772 63.75 26.25V30H26.25V26.25ZM75 71.25C75 74.2337 73.8147 77.0952 71.705 79.205C69.5952 81.3147 66.7337 82.5 63.75 82.5H26.25C23.2663 82.5 20.4048 81.3147 18.2951 79.205C16.1853 77.0952 15 74.2337 15 71.25V48.75C15 45.7663 16.1853 42.9048 18.2951 40.795C20.4048 38.6853 23.2663 37.5 26.25 37.5H63.75C66.7337 37.5 69.5952 38.6853 71.705 40.795C73.8147 42.9048 75 45.7663 75 48.75V71.25Z" fill="white"/>
<path d="M45 52.5C44.0054 52.5 43.0516 52.8951 42.3484 53.5984C41.6451 54.3016 41.25 55.2554 41.25 56.25V63.75C41.25 64.7446 41.6451 65.6984 42.3484 66.4017C43.0516 67.1049 44.0054 67.5 45 67.5C45.9946 67.5 46.9484 67.1049 47.6516 66.4017C48.3549 65.6984 48.75 64.7446 48.75 63.75V56.25C48.75 55.2554 48.3549 54.3016 47.6516 53.5984C46.9484 52.8951 45.9946 52.5 45 52.5Z" fill="white"/>
</g>
<defs>
<clipPath id="clip0_677_169">
<rect width="90" height="90" fill="white"/>
</clipPath>
</defs>
</svg>
