<svg width="90" height="90" viewBox="0 0 90 90" fill="none" xmlns="http://www.w3.org/2000/svg">
<g clip-path="url(#clip0_677_176)">
<path d="M90 41.25C90 35.37 87.18 29.85 82.5 26.3288V26.25C82.5 19.1362 77.5238 13.1663 70.8675 11.6325C69.3338 4.98 63.36 0 56.25 0C51.7725 0 47.7487 1.9725 45 5.08875C42.2513 1.96875 38.2275 0 33.75 0C26.64 0 20.6663 4.97625 19.1325 11.6325C12.48 13.1663 7.5 19.1362 7.5 26.25V26.3288C2.82 29.85 0 35.3662 0 41.25C0 44.5725 0.88125 47.7637 2.5725 50.625C0.885 53.4863 0 56.6775 0 60C0 66.3225 3.2175 72.165 8.50125 75.6225C11.1975 84.165 19.0462 90 28.125 90C35.0925 90 41.265 86.5275 45 81.2175C48.735 86.5238 54.9075 90 61.875 90C70.9575 90 78.8063 84.165 81.4987 75.6225C86.7787 72.165 90 66.3225 90 60C90 56.6775 89.1187 53.4863 87.4275 50.625C89.115 47.7637 90 44.5725 90 41.25ZM28.125 82.5C21.9975 82.5 16.7512 78.3187 15.3713 72.33C15.1275 71.2763 14.4412 70.38 13.4887 69.87C9.795 67.89 7.5 64.11 7.5 60.0037C7.5 57.4725 8.3775 55.0462 10.0462 52.9837C11.1562 51.6075 11.1562 49.6462 10.0462 48.27C8.38125 46.2113 7.5 43.785 7.5 41.25C7.5 37.2375 9.71625 33.4988 13.2863 31.4888C14.6737 30.7088 15.4163 29.1375 15.1388 27.57C15.0638 27.1388 15 26.7038 15 26.25C15 22.1138 18.3638 18.75 22.5 18.75C24.5737 18.75 26.25 17.07 26.25 15C26.25 10.8637 29.6138 7.5 33.75 7.5C37.8862 7.5 41.25 10.8637 41.25 15V30H32.745C31.4475 27.7575 29.025 26.25 26.25 26.25C22.1063 26.25 18.75 29.6063 18.75 33.75C18.75 37.8937 22.1063 41.25 26.25 41.25C29.025 41.25 31.4475 39.7425 32.745 37.5H41.25V56.25H32.745C31.4475 54.0075 29.025 52.5 26.25 52.5C22.1063 52.5 18.75 55.8563 18.75 60C18.75 64.1438 22.1063 67.5 26.25 67.5C29.025 67.5 31.4475 65.9925 32.745 63.75H41.25V69.375C41.25 76.6125 35.3625 82.5 28.125 82.5ZM79.9538 52.98C81.6187 55.0387 82.5 57.465 82.5 60C82.5 64.11 80.2087 67.89 76.5112 69.8662C75.5587 70.3763 74.8725 71.2725 74.6287 72.3263C73.2487 78.315 67.9987 82.4963 61.875 82.4963C54.6375 82.4963 48.75 76.6087 48.75 69.3713V52.4963H56.25C62.4525 52.4963 67.5 47.4487 67.5 41.2463V40.2412C69.7425 38.9437 71.25 36.5212 71.25 33.7463C71.25 29.6025 67.8938 26.2463 63.75 26.2463C59.6063 26.2463 56.25 29.6025 56.25 33.7463C56.25 36.5212 57.7575 38.9437 60 40.2412V41.2463C60 43.3125 58.32 44.9963 56.25 44.9963H48.75V15C48.75 10.8637 52.1138 7.5 56.25 7.5C60.3862 7.5 63.75 10.8637 63.75 15C63.75 17.07 65.4262 18.75 67.5 18.75C71.6363 18.75 75 22.1138 75 26.25C75 26.7038 74.9325 27.1388 74.8612 27.57C74.5837 29.1375 75.3263 30.7088 76.7138 31.4888C80.2838 33.495 82.5 37.2375 82.5 41.25C82.5 43.7812 81.6225 46.2075 79.9538 48.27C78.8438 49.6462 78.8438 51.6038 79.9538 52.98Z" fill="white"/>
</g>
<defs>
<clipPath id="clip0_677_176">
<rect width="90" height="90" fill="white"/>
</clipPath>
</defs>
</svg>
