<svg width="84" height="84" viewBox="0 0 84 84" fill="none" xmlns="http://www.w3.org/2000/svg">
<g clip-path="url(#clip0_677_160)">
<path d="M78.939 3.2306C77.3589 1.91281 75.5064 0.961582 73.5148 0.445358C71.5231 -0.0708654 69.4418 -0.139258 67.4205 0.245101L35.2765 6.2721C31.2646 7.02397 27.6417 9.15459 25.0346 12.2953C22.4275 15.4361 21.0004 19.3893 21 23.4711V57.9461C18.8813 56.6864 16.4649 56.0146 14 56.0001C11.2311 56.0001 8.52431 56.8212 6.22202 58.3595C3.91974 59.8979 2.12532 62.0844 1.06569 64.6425C0.00606594 67.2007 -0.271181 70.0156 0.269012 72.7314C0.809206 75.4471 2.14258 77.9417 4.10051 79.8996C6.05845 81.8575 8.55301 83.1909 11.2687 83.7311C13.9845 84.2713 16.7994 83.994 19.3576 82.9344C21.9157 81.8748 24.1022 80.0804 25.6406 77.7781C27.1789 75.4758 28 72.769 28 70.0001V38.0661C27.9999 36.4329 28.5708 34.8512 29.6139 33.5945C30.6571 32.3379 32.1067 31.4856 33.712 31.1851L72.8525 23.8351C73.3602 23.7395 73.8828 23.7575 74.3828 23.8878C74.8827 24.0181 75.3476 24.2574 75.7441 24.5887C76.1406 24.9199 76.4588 25.3348 76.676 25.8036C76.8931 26.2724 77.0038 26.7835 77 27.3001V47.4601C74.8827 46.1955 72.4662 45.5188 70 45.5001C67.2311 45.5001 64.5243 46.3212 62.222 47.8595C59.9197 49.3979 58.1253 51.5844 57.0657 54.1425C56.0061 56.7007 55.7288 59.5156 56.269 62.2314C56.8092 64.9471 58.1426 67.4417 60.1005 69.3996C62.0585 71.3575 64.553 72.6909 67.2688 73.2311C69.9845 73.7713 72.7994 73.494 75.3576 72.4344C77.9157 71.3748 80.1022 69.5804 81.6406 67.2781C83.1789 64.9758 84 62.269 84 59.5001V14.0001C84.0024 11.9429 83.5499 9.91069 82.675 8.04886C81.8 6.18703 80.5243 4.54168 78.939 3.2306ZM14 77.0001C12.6155 77.0001 11.2622 76.5896 10.111 75.8204C8.95987 75.0512 8.06266 73.958 7.53285 72.6789C7.00304 71.3998 6.86441 69.9923 7.13451 68.6345C7.40461 67.2766 8.07129 66.0293 9.05026 65.0504C10.0292 64.0714 11.2765 63.4047 12.6344 63.1346C13.9922 62.8645 15.3997 63.0031 16.6788 63.5329C17.9579 64.0628 19.0511 64.96 19.8203 66.1111C20.5895 67.2623 21 68.6156 21 70.0001C21 71.8566 20.2625 73.6371 18.9498 74.9498C17.637 76.2626 15.8565 77.0001 14 77.0001ZM71.5645 16.9681L32.4205 24.3041C30.8641 24.6007 29.3694 25.1593 28 25.9561V23.4711C27.9997 21.0219 28.8556 18.6496 30.4196 16.7647C31.9836 14.8799 34.1572 13.6011 36.5645 13.1496L68.712 7.1226C69.7226 6.93343 70.7624 6.96918 71.7576 7.22733C72.7528 7.48548 73.6789 7.95968 74.4701 8.61622C75.2613 9.27277 75.8982 10.0955 76.3354 11.0261C76.7727 11.9566 76.9996 12.972 77 14.0001V17.4441C75.2635 16.8018 73.3863 16.6374 71.5645 16.9681ZM70 66.5001C68.6155 66.5001 67.2622 66.0896 66.111 65.3204C64.9599 64.5512 64.0627 63.458 63.5329 62.1789C63.003 60.8998 62.8644 59.4923 63.1345 58.1345C63.4046 56.7766 64.0713 55.5293 65.0503 54.5504C66.0292 53.5714 67.2765 52.9047 68.6344 52.6346C69.9922 52.3645 71.3997 52.5031 72.6788 53.0329C73.9579 53.5628 75.0511 54.46 75.8203 55.6111C76.5895 56.7623 77 58.1156 77 59.5001C77 61.3566 76.2625 63.1371 74.9498 64.4498C73.637 65.7626 71.8565 66.5001 70 66.5001Z" fill="white"/>
</g>
<defs>
<clipPath id="clip0_677_160">
<rect width="84" height="84" fill="white"/>
</clipPath>
</defs>
</svg>
