<svg width="40" height="40" viewBox="0 0 40 40" fill="none" xmlns="http://www.w3.org/2000/svg">
<g clip-path="url(#clip0_583_177)">
<path d="M20 40C31.0457 40 40 31.0457 40 20C40 8.95432 31.0457 0 20 0C8.95432 0 0 8.95432 0 20C0 31.0457 8.95432 40 20 40Z" fill="#17212B"/>
<path d="M8.3237 19.8275C8.3237 19.8275 18.3237 15.7235 21.7919 14.2783C23.1214 13.7003 27.63 11.8506 27.63 11.8506C27.63 11.8506 29.711 11.0414 29.5375 13.0067C29.4797 13.8159 29.0173 16.6483 28.5549 19.7119C27.8612 24.0471 27.1098 28.787 27.1098 28.787C27.1098 28.787 26.9942 30.1165 26.0115 30.3477C25.0289 30.5789 23.4103 29.5385 23.1214 29.3072C22.8901 29.1339 18.7861 26.5327 17.2832 25.261C16.8786 24.9142 16.4162 24.2206 17.341 23.4113C19.4219 21.5038 21.9075 19.1339 23.4103 17.631C24.104 16.9373 24.7976 15.3188 21.9075 17.2841C17.8035 20.1165 13.7572 22.7755 13.7572 22.7755C13.7572 22.7755 12.8323 23.3535 11.0983 22.8332C9.3641 22.3131 7.34098 21.6194 7.34098 21.6194C7.34098 21.6194 5.95378 20.7523 8.3237 19.8275Z" fill="white"/>
</g>
<defs>
<clipPath id="clip0_583_177">
<rect width="40" height="40" fill="white"/>
</clipPath>
</defs>
</svg>
