<svg width="166" height="219" viewBox="0 0 166 219" fill="none" xmlns="http://www.w3.org/2000/svg">
<rect x="50.186" y="150.502" width="65.6279" height="42.4493" fill="#D2D2D2"/>
<rect x="31.8486" y="187.163" width="102.302" height="31.837" rx="15.9185" fill="#F0F0F0"/>
<ellipse cx="83" cy="82.9692" rx="83" ry="82.9692" fill="#F0F0F0"/>
<path d="M83.4826 112.799C99.9779 112.799 112.837 99.157 112.837 82.9691C112.837 66.7811 99.9779 53.1387 83.4826 53.1387C66.9873 53.1387 54.1279 66.7811 54.1279 82.9691C54.1279 99.157 66.9873 112.799 83.4826 112.799Z" fill="#F0F0F0" stroke="#1C2227" stroke-width="23"/>
<rect width="43.1171" height="10.7391" rx="5.36955" transform="matrix(0.866106 -0.499861 0.500139 0.865945 107.641 187.608)" fill="#D3D3D3"/>
<rect x="78.1743" y="177.516" width="43.4302" height="26.0485" rx="13.0242" fill="white"/>
<rect width="50.0495" height="11.9232" rx="5.96158" transform="matrix(0.500139 0.865945 -0.866106 0.499861 125.425 132.025)" fill="#C5C5C5"/>
<rect width="18.3467" height="32.2846" rx="9.17334" transform="matrix(0.500139 0.865945 -0.866106 0.499861 131.712 121.33)" fill="#C5C5C5"/>
</svg>
